<svg xmlns="http://www.w3.org/2000/svg" viewBox="0 0 32 32" id="order-tracking"><path d="M24 8a1 1 0 1 1-1-1 1 1 0 0 1 1 1Zm3.06 5.49L23 21.74l-4.06-8.25c-2.19-4.22-2.24-6.67-.18-8.73a6 6 0 0 1 8.48 0c2.06 2.06 2.01 4.51-.18 8.73Zm-1.12-4.9a3 3 0 1 0-2.35 2.35 3 3 0 0 0 2.35-2.35ZM22 25v2h-4v2h6v-4ZM8 27v2h8v-2Zm-3-4H3v6h3v-2H5Zm0-2v-8H3v8ZM5 7h3V5H3v6h2Zm6.59 1.83L13 7.41l1.41 1.42 1.42-1.42L14.41 6l1.42-1.41-1.42-1.42L13 4.59l-1.41-1.42-1.42 1.42L11.59 6l-1.42 1.41Z" data-name="13-order tracking"></path></svg>